<?xml version="1.0" encoding="UTF-8"?>
<svg id="Layer_2" data-name="Layer 2" xmlns="http://www.w3.org/2000/svg" xmlns:xlink="http://www.w3.org/1999/xlink" viewBox="0 0 1112.71 241.75">
  <defs>
    <style>
      .cls-1 {
        fill: url(#linear-gradient-38);
      }

      .cls-1, .cls-2, .cls-3, .cls-4, .cls-5, .cls-6, .cls-7, .cls-8, .cls-9, .cls-10, .cls-11, .cls-12, .cls-13, .cls-14, .cls-15, .cls-16, .cls-17, .cls-18, .cls-19, .cls-20, .cls-21, .cls-22, .cls-23, .cls-24, .cls-25, .cls-26, .cls-27, .cls-28, .cls-29, .cls-30, .cls-31, .cls-32, .cls-33, .cls-34, .cls-35, .cls-36, .cls-37, .cls-38, .cls-39, .cls-40, .cls-41, .cls-42 {
        stroke-width: 0px;
      }

      .cls-2 {
        fill: url(#linear-gradient-12);
      }

      .cls-3 {
        fill: #58595b;
      }

      .cls-4 {
        fill: url(#linear-gradient-17);
      }

      .cls-5 {
        fill: url(#linear-gradient-19);
      }

      .cls-6 {
        fill: url(#linear-gradient-33);
      }

      .cls-7 {
        fill: url(#linear-gradient);
      }

      .cls-8 {
        fill: url(#linear-gradient-21);
      }

      .cls-9 {
        fill: url(#linear-gradient-6);
      }

      .cls-43 {
        isolation: isolate;
      }

      .cls-10 {
        fill: url(#linear-gradient-15);
      }

      .cls-11 {
        fill: url(#linear-gradient-11);
      }

      .cls-12 {
        fill: url(#linear-gradient-5);
      }

      .cls-13 {
        fill: url(#linear-gradient-31);
      }

      .cls-14 {
        fill: url(#linear-gradient-34);
      }

      .cls-15 {
        fill: url(#linear-gradient-41);
      }

      .cls-16 {
        fill: url(#linear-gradient-40);
      }

      .cls-17 {
        fill: url(#linear-gradient-13);
      }

      .cls-18 {
        fill: url(#linear-gradient-23);
      }

      .cls-19 {
        fill: url(#linear-gradient-25);
      }

      .cls-20 {
        fill: url(#linear-gradient-16);
      }

      .cls-21 {
        fill: url(#linear-gradient-22);
      }

      .cls-22 {
        fill: url(#linear-gradient-35);
      }

      .cls-23 {
        fill: url(#linear-gradient-32);
      }

      .cls-24 {
        fill: url(#linear-gradient-20);
      }

      .cls-25 {
        fill: url(#linear-gradient-14);
      }

      .cls-26 {
        fill: url(#linear-gradient-2);
      }

      .cls-27 {
        fill: url(#linear-gradient-7);
      }

      .cls-28 {
        fill: url(#linear-gradient-39);
      }

      .cls-29 {
        fill: url(#linear-gradient-3);
      }

      .cls-30 {
        fill: url(#linear-gradient-9);
      }

      .cls-31 {
        fill: url(#linear-gradient-27);
      }

      .cls-32 {
        fill: url(#linear-gradient-36);
      }

      .cls-33 {
        fill: url(#linear-gradient-8);
      }

      .cls-34 {
        fill: url(#linear-gradient-24);
      }

      .cls-35 {
        fill: url(#linear-gradient-26);
      }

      .cls-36 {
        fill: url(#linear-gradient-18);
      }

      .cls-37 {
        fill: url(#linear-gradient-30);
      }

      .cls-38 {
        fill: url(#linear-gradient-29);
      }

      .cls-39 {
        fill: url(#linear-gradient-28);
      }

      .cls-40 {
        fill: url(#linear-gradient-10);
      }

      .cls-41 {
        fill: url(#linear-gradient-4);
      }

      .cls-42 {
        fill: url(#linear-gradient-37);
      }
    </style>
    <linearGradient id="linear-gradient" x1="65.39" y1="209.98" x2="65.39" y2="61.28" gradientUnits="userSpaceOnUse">
      <stop offset="0" stop-color="#006fa5"/>
      <stop offset=".84" stop-color="#0a2b6f"/>
    </linearGradient>
    <linearGradient id="linear-gradient-2" x1="188.18" y1="209.98" x2="188.18" y2="61.28" xlink:href="#linear-gradient"/>
    <linearGradient id="linear-gradient-3" x1="353.82" y1="209.98" x2="353.82" y2="61.28" xlink:href="#linear-gradient"/>
    <linearGradient id="linear-gradient-4" x1="456.79" y1="209.98" x2="456.79" y2="61.29" xlink:href="#linear-gradient"/>
    <linearGradient id="linear-gradient-5" x1="679.46" y1="209.98" x2="679.46" y2="61.28" xlink:href="#linear-gradient"/>
    <linearGradient id="linear-gradient-6" x1="269.76" y1="209.99" x2="269.76" y2="61.28" gradientUnits="userSpaceOnUse">
      <stop offset="0" stop-color="#0076b0"/>
      <stop offset=".84" stop-color="#0a2b6f"/>
    </linearGradient>
    <linearGradient id="linear-gradient-7" x1="839.63" x2="839.63" xlink:href="#linear-gradient"/>
    <linearGradient id="linear-gradient-8" x1="968.17" y1="209.98" x2="968.17" y2="61.29" xlink:href="#linear-gradient"/>
    <linearGradient id="linear-gradient-9" x1="1073.46" y1="209.98" x2="1073.46" y2="61.29" xlink:href="#linear-gradient"/>
    <linearGradient id="linear-gradient-10" x1="521.44" y1="92.77" x2="560.07" y2="92.77" gradientUnits="userSpaceOnUse">
      <stop offset=".03" stop-color="#fae493"/>
      <stop offset=".25" stop-color="#aa8b47"/>
      <stop offset=".57" stop-color="#fbe494"/>
      <stop offset=".71" stop-color="#aa8b47"/>
      <stop offset=".84" stop-color="#ac904b"/>
      <stop offset=".97" stop-color="#9e8148"/>
    </linearGradient>
    <linearGradient id="linear-gradient-11" x1="521.47" y1="91.75" x2="568.97" y2="91.75" xlink:href="#linear-gradient-10"/>
    <linearGradient id="linear-gradient-12" x1="521.5" y1="90.36" x2="575.58" y2="90.36" xlink:href="#linear-gradient-10"/>
    <linearGradient id="linear-gradient-13" x1="521.54" y1="86.87" x2="578" y2="86.87" xlink:href="#linear-gradient-10"/>
    <linearGradient id="linear-gradient-14" x1="521.58" y1="81.28" x2="578.54" y2="81.28" xlink:href="#linear-gradient-10"/>
    <linearGradient id="linear-gradient-15" x1="521.62" y1="74.91" x2="578.91" y2="74.91" xlink:href="#linear-gradient-10"/>
    <linearGradient id="linear-gradient-16" x1="521.67" y1="67.11" x2="578.93" y2="67.11" xlink:href="#linear-gradient-10"/>
    <linearGradient id="linear-gradient-17" x1="521.72" y1="58.43" x2="578.96" y2="58.43" xlink:href="#linear-gradient-10"/>
    <linearGradient id="linear-gradient-18" x1="601.39" x2="640.02" xlink:href="#linear-gradient-10"/>
    <linearGradient id="linear-gradient-19" x1="592.49" y1="91.75" x2="639.99" y2="91.75" xlink:href="#linear-gradient-10"/>
    <linearGradient id="linear-gradient-20" x1="585.88" y1="90.36" x2="639.96" y2="90.36" xlink:href="#linear-gradient-10"/>
    <linearGradient id="linear-gradient-21" x1="583.47" y1="86.87" x2="639.92" y2="86.87" xlink:href="#linear-gradient-10"/>
    <linearGradient id="linear-gradient-22" x1="582.92" y1="81.28" x2="639.89" y2="81.28" xlink:href="#linear-gradient-10"/>
    <linearGradient id="linear-gradient-23" x1="582.55" y1="74.91" x2="639.84" y2="74.91" xlink:href="#linear-gradient-10"/>
    <linearGradient id="linear-gradient-24" x1="582.53" y1="67.11" x2="639.8" y2="67.11" xlink:href="#linear-gradient-10"/>
    <linearGradient id="linear-gradient-25" x1="582.51" y1="58.43" x2="639.74" y2="58.43" xlink:href="#linear-gradient-10"/>
    <linearGradient id="linear-gradient-26" y1="148.98" y2="148.98" xlink:href="#linear-gradient-10"/>
    <linearGradient id="linear-gradient-27" x1="521.47" y1="150" x2="568.97" y2="150" xlink:href="#linear-gradient-10"/>
    <linearGradient id="linear-gradient-28" x1="521.5" y1="151.39" x2="575.58" y2="151.39" xlink:href="#linear-gradient-10"/>
    <linearGradient id="linear-gradient-29" x1="521.54" y1="154.88" x2="578" y2="154.88" xlink:href="#linear-gradient-10"/>
    <linearGradient id="linear-gradient-30" x1="521.58" y1="160.47" x2="578.54" y2="160.47" xlink:href="#linear-gradient-10"/>
    <linearGradient id="linear-gradient-31" x1="521.62" y1="166.84" x2="578.91" y2="166.84" xlink:href="#linear-gradient-10"/>
    <linearGradient id="linear-gradient-32" x1="521.67" y1="174.64" x2="578.93" y2="174.64" xlink:href="#linear-gradient-10"/>
    <linearGradient id="linear-gradient-33" x1="521.72" y1="183.32" x2="578.96" y2="183.32" xlink:href="#linear-gradient-10"/>
    <linearGradient id="linear-gradient-34" x1="601.39" y1="148.98" x2="640.02" y2="148.98" xlink:href="#linear-gradient-10"/>
    <linearGradient id="linear-gradient-35" x1="592.49" y1="150" x2="639.99" y2="150" xlink:href="#linear-gradient-10"/>
    <linearGradient id="linear-gradient-36" x1="585.88" y1="151.39" x2="639.96" y2="151.39" xlink:href="#linear-gradient-10"/>
    <linearGradient id="linear-gradient-37" x1="583.46" y1="154.88" x2="639.92" y2="154.88" xlink:href="#linear-gradient-10"/>
    <linearGradient id="linear-gradient-38" x1="582.92" y1="160.47" x2="639.89" y2="160.47" xlink:href="#linear-gradient-10"/>
    <linearGradient id="linear-gradient-39" x1="582.55" y1="166.84" x2="639.84" y2="166.84" xlink:href="#linear-gradient-10"/>
    <linearGradient id="linear-gradient-40" x1="582.53" y1="174.64" x2="639.8" y2="174.64" xlink:href="#linear-gradient-10"/>
    <linearGradient id="linear-gradient-41" x1="582.51" y1="183.32" x2="639.74" y2="183.32" xlink:href="#linear-gradient-10"/>
  </defs>
  <g id="Layer_1-2" data-name="Layer 1">
    <g>
      <path class="cls-7" d="M14.93,95.24c0-26.77,0-31.58-.34-37.07-.34-5.84-1.72-8.58-7.38-9.78-1.37-.34-4.29-.51-5.84-.51-.69,0-1.37-.34-1.37-1.03,0-1.03.86-1.37,2.75-1.37,7.72,0,18.54.52,19.39.52,2.06,0,12.87-.52,23.17-.52,16.99,0,48.4-1.54,68.82,19.57,8.58,8.92,16.65,23.17,16.65,43.59,0,21.62-8.92,38.27-18.54,48.4-7.38,7.72-22.83,19.74-52,19.74-7.38,0-16.48-.52-23.86-1.03-7.55-.52-13.39-1.03-14.24-1.03-.34,0-3.26,0-6.86.17-3.43,0-7.38.34-9.95.34-1.89,0-2.75-.34-2.75-1.37,0-.52.34-1.03,1.37-1.03,1.54,0,3.6-.34,5.15-.69,3.43-.69,4.29-4.46,4.98-9.44.86-7.21.86-20.77.86-37.24v-30.21ZM29.35,113.77c0,18.19.17,33.98.34,37.24.17,4.29.52,11.16,1.89,13.04,2.23,3.26,8.92,6.86,29.18,6.86,15.96,0,30.72-5.84,40.85-15.96,8.92-8.75,13.73-25.23,13.73-41.02,0-21.8-9.44-35.87-16.48-43.25-16.13-16.99-35.7-19.39-56.12-19.39-3.43,0-9.78.52-11.16,1.2-1.54.69-2.06,1.54-2.06,3.43-.17,5.84-.17,23.34-.17,36.56v21.28Z"/>
      <path class="cls-26" d="M166.47,107.08c0-22.65,0-26.77-.34-31.41-.34-4.98-1.2-7.38-6.18-8.07-1.2-.17-3.78-.34-5.15-.34-.51,0-1.2-.69-1.2-1.2,0-.86.69-1.2,2.4-1.2,6.86,0,16.65.34,17.51.34,1.03,0,32.61.17,36.04,0,2.92-.17,5.66-.69,6.86-.86.69-.17,1.37-.69,2.06-.69.52,0,.69.69.69,1.37,0,1.03-.86,2.75-1.2,6.87-.17,1.37-.52,7.89-.86,9.61-.17.69-.69,1.54-1.37,1.54-.86,0-1.2-.69-1.2-1.89,0-1.03-.17-3.43-.86-5.15-1.03-2.4-2.57-3.43-10.81-4.46-2.57-.34-20.08-.51-21.8-.51-.69,0-.86.51-.86,1.54v39.65c0,1.03,0,1.55.86,1.55,1.89,0,21.8,0,25.23-.34,3.6-.34,5.84-.52,7.38-2.06,1.03-1.03,1.72-1.89,2.23-1.89s.86.34.86,1.2-.86,3.26-1.2,8.07c-.34,2.92-.69,8.41-.69,9.44,0,1.2-.34,2.75-1.37,2.75-.69,0-1.03-.52-1.03-1.37,0-1.37,0-2.92-.69-4.8-.52-2.06-1.89-3.78-7.72-4.46-4.12-.52-20.25-.69-22.83-.69-.86,0-1.03.52-1.03,1.03v12.19c0,4.98-.17,21.97,0,24.89.34,9.78,3.09,11.67,18.02,11.67,3.95,0,11.16,0,15.1-1.55,3.95-1.72,6.01-4.29,6.87-10.13.34-1.72.69-2.23,1.54-2.23s1.03,1.2,1.03,2.23-1.2,10.98-2.06,14.07c-1.03,3.78-2.57,3.78-8.41,3.78-11.33,0-20.08-.34-26.26-.51-6.35-.34-10.3-.34-12.53-.34-.34,0-3.26,0-6.52.17-2.92.17-6.35.34-8.75.34-1.54,0-2.4-.34-2.4-1.2,0-.52.34-1.2,1.2-1.2,1.37,0,3.26-.52,4.63-.69,2.92-.52,3.26-3.43,3.95-7.72.86-6.01.86-17.51.86-31.58v-25.74Z"/>
      <path class="cls-29" d="M343.35,133.17c0,21.45.34,30.21,3.09,32.78,2.4,2.4,8.24,3.43,20.08,3.43,7.89,0,14.59-.17,18.19-4.46,1.89-2.23,3.09-5.32,3.6-8.24.17-1.03.69-1.89,1.54-1.89.69,0,1.03.69,1.03,2.23s-1.03,10.3-2.23,14.59c-1.03,3.43-1.54,3.95-9.61,3.95-10.81,0-19.22-.17-26.26-.51-6.86-.17-12.01-.34-16.48-.34-.69,0-3.26,0-6.18.17-3.09.17-6.35.34-8.75.34-1.54,0-2.4-.34-2.4-1.2,0-.52.34-1.2,1.2-1.2,1.37,0,3.26-.34,4.63-.69,2.92-.69,3.26-3.43,3.95-7.72.86-6.01.86-17.51.86-31.58v-25.74c0-22.65,0-26.77-.34-31.41-.34-4.98-1.2-7.38-6.18-8.07-1.2-.17-3.78-.34-5.15-.34-.51,0-1.2-.69-1.2-1.2,0-.86.69-1.2,2.4-1.2,6.86,0,16.3.34,17.16.34.69,0,12.01-.34,16.65-.34,1.54,0,2.4.34,2.4,1.2,0,.52-.69,1.03-1.2,1.03-1.03,0-3.26.17-4.98.34-4.46.86-5.32,3.09-5.66,8.24-.17,4.63-.17,8.75-.17,31.41v26.09Z"/>
      <path class="cls-41" d="M412.86,107.08c0-22.65,0-26.77-.34-31.41-.34-4.63-1.2-7.38-6.18-8.07-1.2-.17-3.78-.34-5.15-.34-.51,0-1.2-.69-1.2-1.2,0-.86.69-1.2,2.4-1.2,6.86,0,15.96.34,17.33.34s10.81-.34,15.27-.34c1.72,0,2.57.34,2.57,1.2,0,.52-.69,1.2-1.37,1.2-1.03,0-1.89,0-3.78.34-3.95.69-4.81,3.26-5.15,8.07-.34,4.63-.34,8.75-.34,31.41v20.42c0,21.11,4.63,29.86,11.16,35.7,7.38,6.69,13.9,7.89,22.48,7.89,9.27,0,18.19-4.12,23.34-10.3,7.04-8.41,8.58-20.42,8.58-35.35v-18.36c0-22.65-.17-26.77-.34-31.41-.17-4.63-1.03-7.38-6.01-8.07-1.2-.17-3.78-.34-5.15-.34-.69,0-1.2-.69-1.2-1.2,0-.86.69-1.2,2.4-1.2,6.69,0,15.45.34,16.3.34,1.03,0,8.24-.34,12.7-.34,1.72,0,2.4.34,2.4,1.2,0,.52-.51,1.2-1.2,1.2-1.03,0-1.89,0-3.78.34-4.12.86-4.98,3.26-5.32,8.07-.34,4.63-.17,8.75-.17,31.41v15.62c0,15.79-2.06,33.47-14.07,43.76-10.98,9.44-22.65,10.64-31.58,10.64-4.98,0-20.77-.34-31.41-10.3-7.38-6.87-13.22-16.99-13.22-38.27v-21.45Z"/>
      <path class="cls-12" d="M657.75,107.08c0-22.65,0-26.77-.34-31.41-.34-4.98-1.2-7.38-6.18-8.07-1.2-.17-3.78-.34-5.15-.34-.51,0-1.2-.69-1.2-1.2,0-.86.69-1.2,2.4-1.2,6.86,0,16.65.34,17.51.34,1.03,0,32.61.17,36.04,0,2.92-.17,5.66-.69,6.87-.86.69-.17,1.37-.69,2.06-.69.52,0,.69.69.69,1.37,0,1.03-.86,2.75-1.2,6.87-.17,1.37-.51,7.89-.86,9.61-.17.69-.69,1.54-1.37,1.54-.86,0-1.2-.69-1.2-1.89,0-1.03-.17-3.43-.86-5.15-1.03-2.4-2.57-3.43-10.81-4.46-2.57-.34-20.08-.51-21.8-.51-.69,0-.86.51-.86,1.54v39.65c0,1.03,0,1.55.86,1.55,1.89,0,21.8,0,25.23-.34,3.6-.34,5.84-.52,7.38-2.06,1.03-1.03,1.72-1.89,2.23-1.89s.86.34.86,1.2-.86,3.26-1.2,8.07c-.34,2.92-.69,8.41-.69,9.44,0,1.2-.34,2.75-1.37,2.75-.69,0-1.03-.52-1.03-1.37,0-1.37,0-2.92-.69-4.8-.52-2.06-1.89-3.78-7.72-4.46-4.12-.52-20.25-.69-22.83-.69-.86,0-1.03.52-1.03,1.03v12.19c0,4.98-.17,21.97,0,24.89.34,9.78,3.09,11.67,18.02,11.67,3.95,0,11.16,0,15.1-1.55,3.95-1.72,6.01-4.29,6.87-10.13.34-1.72.69-2.23,1.54-2.23s1.03,1.2,1.03,2.23-1.2,10.98-2.06,14.07c-1.03,3.78-2.57,3.78-8.41,3.78-11.33,0-20.08-.34-26.26-.51-6.35-.34-10.3-.34-12.53-.34-.34,0-3.26,0-6.52.17-2.92.17-6.35.34-8.75.34-1.54,0-2.4-.34-2.4-1.2,0-.52.34-1.2,1.2-1.2,1.37,0,3.26-.52,4.63-.69,2.92-.52,3.26-3.43,3.95-7.72.86-6.01.86-17.51.86-31.58v-25.74Z"/>
      <path class="cls-9" d="M292.06,121.49c2.92,0,5.15.34,5.15,1.72,0,2.06-3.26,2.4-6.01,2.92-4.63.69-35.01,4.8-40.85,6.35-3.26.86-6.18,2.57-7.04,2.57-1.03,0-1.2-1.03-.86-2.57l2.57-9.61c.34-1.2,1.03-1.37,3.77-1.37h43.25Z"/>
      <path class="cls-27" d="M789.18,95.24c0-26.77,0-31.58-.34-37.07-.34-5.84-1.72-8.58-7.38-9.78-1.37-.34-4.29-.51-5.84-.51-.69,0-1.37-.34-1.37-1.03,0-1.03.86-1.37,2.75-1.37,7.72,0,18.54.52,19.39.52,2.06,0,12.87-.52,23.17-.52,16.99,0,48.4-1.54,68.82,19.57,8.58,8.92,16.65,23.17,16.65,43.59,0,21.62-8.92,38.27-18.54,48.4-7.38,7.72-22.83,19.74-52,19.74-7.38,0-16.48-.52-23.86-1.03-7.55-.52-13.39-1.03-14.24-1.03-.34,0-3.26,0-6.86.17-3.43,0-7.38.34-9.95.34-1.89,0-2.75-.34-2.75-1.37,0-.52.34-1.03,1.37-1.03,1.55,0,3.6-.34,5.15-.69,3.43-.69,4.29-4.46,4.98-9.44.86-7.21.86-20.77.86-37.24v-30.21ZM803.59,113.77c0,18.19.17,33.98.34,37.24.17,4.29.52,11.16,1.89,13.04,2.23,3.26,8.92,6.86,29.18,6.86,15.96,0,30.72-5.84,40.85-15.96,8.92-8.75,13.73-25.23,13.73-41.02,0-21.8-9.44-35.87-16.48-43.25-16.13-16.99-35.7-19.39-56.12-19.39-3.43,0-9.78.52-11.16,1.2-1.54.69-2.06,1.54-2.06,3.43-.17,5.84-.17,23.34-.17,36.56v21.28Z"/>
      <path class="cls-33" d="M961.65,118.75l-24.03-39.13c-3.43-5.66-6.35-9.78-11.5-11.33-2.4-.69-5.49-1.03-6.35-1.03s-1.37-.86-1.37-1.37c0-.69.69-1.03,2.57-1.03,4.29,0,16.48.34,17.68.34,1.37,0,9.61-.34,14.76-.34,2.06,0,2.57.34,2.57,1.03s-.52,1.37-1.37,1.37c-1.03,0-2.92,0-4.12.34-1.37.17-1.89,1.2-1.89,2.23,0,1.37.69,3.26,1.55,4.8,6.35,11.5,12.01,21.97,19.91,34.5,4.46-6.35,20.42-30.89,21.8-33.98,1.2-2.06,1.55-3.43,1.55-5.15,0-1.03-1.03-1.89-2.57-2.4-1.55-.34-3.26-.34-4.12-.34s-1.37-.69-1.37-1.37.69-1.03,2.57-1.03c5.66,0,12.01.34,13.39.34s7.55-.34,12.7-.34c1.72,0,2.4.34,2.4,1.03,0,.51-.51,1.37-1.54,1.37-1.2,0-3.43.17-5.15.69-4.29,1.37-7.04,5.15-11.33,11.5l-24.2,35.35c2.92,4.46,28.66,46.85,31.92,50.8,2.4,3.09,4.12,5.15,8.58,6.35,2.06.52,4.29.86,5.15.86s1.2.52,1.2,1.2-.69,1.2-2.06,1.2c-9.27,0-16.48,0-24.71-.34-3.95-.17-4.63-.52-4.63-1.2,0-.51.34-1.03.86-1.2.86-.17,2.23-1.72.86-4.12-8.24-14.24-16.48-28.32-25.57-43.08l-23.17,38.27c-1.37,2.4-1.89,4.98-1.89,6.52,0,1.37,1.03,2.06,2.4,2.4.86.17,2.06.34,2.75.34.86,0,1.37.69,1.37,1.37s-.86,1.03-1.89,1.03c-3.6,0-13.56-.52-14.93-.52-1.2,0-8.75.52-13.73.52-1.2,0-1.37-.52-1.37-1.03,0-.69.34-1.37,1.2-1.37,1.2,0,3.43-.34,5.66-.86,4.46-1.2,7.55-3.95,12.36-11.33l27.12-41.88Z"/>
      <path class="cls-30" d="M1047.46,107.08c0-22.65,0-26.77-.34-31.41-.34-4.98-1.2-7.38-6.18-8.07-1.2-.17-3.78-.34-5.15-.34-.52,0-1.2-.69-1.2-1.2,0-.86.69-1.2,2.4-1.2,6.87,0,16.3.34,17.51.34,3.26,0,14.59-.34,21.45-.34,19.39,0,26.26,6.01,28.83,8.24,3.43,3.09,7.55,9.61,7.55,17.51,0,20.94-15.79,34.84-38.96,34.84-.86,0-3.43,0-4.29-.17-.69,0-1.55-.69-1.55-1.37,0-1.2.86-1.54,3.95-1.54,16.31,0,27.98-10.3,27.98-23.51,0-4.81-.52-14.24-8.58-22.14-7.89-7.89-16.99-7.04-20.42-7.04-2.57,0-6.87.69-8.41,1.03-.86.17-1.2,1.2-1.2,2.75v59.38c0,14.07,0,25.57.69,31.58.52,4.29,1.37,7.04,6.01,7.72,2.06.34,5.32.69,6.69.69.86,0,1.2.69,1.2,1.2,0,.69-.69,1.2-2.4,1.2-8.24,0-18.19-.52-18.88-.52-.52,0-10.3.52-14.93.52-1.54,0-2.4-.34-2.4-1.2,0-.52.34-1.2,1.2-1.2,1.37,0,3.26-.34,4.63-.69,2.92-.69,3.26-3.43,3.95-7.72.86-6.01.86-17.51.86-31.58v-25.74Z"/>
      <g>
        <path class="cls-3" d="M662.15,194.89l11.15,28.3h-2.51l-3.45-9.14h-11.23l-3.65,9.11h-2.43l11.5-28.26h.63ZM656.89,212.04h9.69l-4.75-12.21-4.95,12.21Z"/>
        <path class="cls-3" d="M677.61,195l21.51,23.94v-23.31h2.12v28.38h-.59c-2.9-3.38-5.85-6.79-8.83-10.13-4.16-4.67-8.4-9.26-12.64-13.86v23.2h-2.12v-28.22h.55Z"/>
        <path class="cls-3" d="M731.54,195.75v1.96h-10.68v9.69h10.68v2h-10.72v11.74h10.91v2.08h-13.07v-27.47h12.87Z"/>
        <path class="cls-3" d="M735.62,195.75h2.59l6.52,10.91,6.44-10.91h2.63l-7.77,13.15,8.6,14.33h-2.75l-7.1-12.17-7.18,12.09h-2.51l8.36-14.25-7.81-13.15Z"/>
        <path class="cls-3" d="M760.94,223.14h-2.24v-27.4c1.88-.08,3.85-.24,7.65.12.27.04,1.65.35,2.67.9,2.28,1.18,3.53,3.57,3.53,6.2,0,3.77-2.59,5.81-3.65,6.44-1.88,1.14-3.65,1.1-7.97,1.1v12.64ZM760.86,208.47h2.51c2.43-.04,4.4-.12,5.89-2.24.35-.51,1.06-1.65,1.06-3.26,0-2-1.18-3.89-2.83-4.67-.27-.16-.75-.31-1.45-.43-.9-.12-2.75-.12-5.18-.08v10.68Z"/>
        <path class="cls-3" d="M792.77,223.22h-2.9l-10.13-13.35v13.31h-2.2v-27.47c1.69-.08,3.49-.24,7.07.04.94.2,1.77.35,2.59.78,2.51,1.18,3.96,3.69,3.96,6.48,0,1.02-.31,3.53-2.28,5.49-1.65,1.61-3.42,1.81-5.73,2.04l9.62,12.68ZM779.66,208.47c1.37,0,2.75,0,4.12-.08.94-.08,2.94-.2,4.28-2.39.31-.47.86-1.53.86-3.02,0-1.77-.98-3.53-2.36-4.44-1.41-.94-3.26-.86-6.91-.75v10.68Z"/>
        <path class="cls-3" d="M810.03,195.75v1.96h-10.68v9.69h10.68v2h-10.72v11.74h10.91v2.08h-13.07v-27.47h12.87Z"/>
        <path class="cls-3" d="M828.6,200.81c-.08-.16-.67-1.1-1.22-1.69-.55-.59-1.96-1.88-4.28-1.88-.51,0-1.84.08-3.06.94-1.65,1.18-1.88,2.94-1.88,3.69,0,1.06.43,2.16,1.18,2.98.08.04.43.43.78.67,1.49,1.1,3.89,1.92,5.46,2.67,2.32,1.14,4.32,2.55,5.3,5.06.16.39.51,1.37.51,2.55-.04,1.69-.59,2.9-.86,3.45-1.45,2.83-4.51,4.36-7.65,4.36-1.37,0-4.43-.31-6.91-3.18-.51-.51-.98-1.22-1.81-2.59l1.81-1.18c.12.16.78,1.33,1.45,2.12,1.37,1.69,3.45,2.67,5.69,2.67,1.06,0,1.88-.24,2.24-.35,2.16-.75,3.77-2.83,3.77-5.18,0-.27-.04-1.02-.31-1.77-.47-1.37-1.45-2.24-2.59-2.98-2.08-1.37-4.51-2.04-6.59-3.34-1.96-1.26-3.69-3.26-3.69-5.81,0-.86.27-3.02,2-4.71.71-.71,2.55-2.12,5.42-2.12.9,0,3.18.2,5.06,1.92.78.67,1.33,1.45,1.92,2.28l-1.73,1.41Z"/>
        <path class="cls-3" d="M849.05,200.81c-.08-.16-.67-1.1-1.22-1.69-.55-.59-1.96-1.88-4.28-1.88-.51,0-1.84.08-3.06.94-1.65,1.18-1.88,2.94-1.88,3.69,0,1.06.43,2.16,1.18,2.98.08.04.43.43.78.67,1.49,1.1,3.89,1.92,5.46,2.67,2.32,1.14,4.32,2.55,5.3,5.06.16.39.51,1.37.51,2.55-.04,1.69-.59,2.9-.86,3.45-1.45,2.83-4.51,4.36-7.65,4.36-1.37,0-4.43-.31-6.91-3.18-.51-.51-.98-1.22-1.81-2.59l1.81-1.18c.12.16.78,1.33,1.45,2.12,1.37,1.69,3.45,2.67,5.69,2.67,1.06,0,1.88-.24,2.24-.35,2.16-.75,3.77-2.83,3.77-5.18,0-.27-.04-1.02-.31-1.77-.47-1.37-1.45-2.24-2.59-2.98-2.08-1.37-4.51-2.04-6.59-3.34-1.96-1.26-3.69-3.26-3.69-5.81,0-.86.27-3.02,2-4.71.71-.71,2.55-2.12,5.42-2.12.9,0,3.18.2,5.06,1.92.78.67,1.33,1.45,1.92,2.28l-1.73,1.41Z"/>
        <path class="cls-3" d="M864.39,218.98l9.15-24.22h.51l9.26,24.22,8.36-23.31h2.47l-10.52,28.42h-.67l-9.11-24.18-9.26,24.1h-.55l-10.36-28.26h2.43l8.28,23.24Z"/>
        <path class="cls-3" d="M904.19,194.89l11.15,28.3h-2.51l-3.45-9.14h-11.23l-3.65,9.11h-2.43l11.5-28.26h.63ZM898.93,212.04h9.69l-4.75-12.21-4.95,12.21Z"/>
        <path class="cls-3" d="M922.63,208.9l7.73-13.15h2.47l-9.18,15.46v12.01h-2.12v-12.01l-8.99-15.5h2.55l7.54,13.19Z"/>
        <path class="cls-3" d="M949.21,199.75c3.77-4.2,8.75-4.63,10.68-4.63,3.49,0,6.95,1.26,9.58,3.61,2.9,2.63,4.71,6.63,4.71,10.64,0,1.77-.43,5.93-3.73,9.62-3.73,4.24-8.63,4.71-10.6,4.71-1.73,0-6.12-.43-9.85-3.89-2.94-2.75-4.63-6.91-4.47-10.99.08-1.69.55-5.57,3.69-9.07ZM950.27,216.9c2.28,2.9,5.93,4.63,9.5,4.63,1.45,0,4.67-.27,7.69-2.71,2.87-2.28,4.55-5.77,4.55-9.42,0-1.45-.35-5.06-3.06-8.09-2.32-2.55-5.73-4.04-9.11-4.08-2.75.04-5.5.98-7.61,2.71-2.71,2.16-4.43,5.53-4.59,8.99-.12,2.83.86,5.77,2.63,7.97Z"/>
        <path class="cls-3" d="M990.49,195.75v2.04h-8.79v9.54h8.75v2.16h-8.75v13.74h-2.2v-27.47h10.99Z"/>
        <path class="cls-3" d="M1020.09,223.22h-2.9l-10.13-13.35v13.31h-2.2v-27.47c1.69-.08,3.49-.24,7.07.04.94.2,1.77.35,2.59.78,2.51,1.18,3.96,3.69,3.96,6.48,0,1.02-.31,3.53-2.28,5.49-1.65,1.61-3.42,1.81-5.73,2.04l9.62,12.68ZM1006.98,208.47c1.37,0,2.75,0,4.12-.08.94-.08,2.94-.2,4.28-2.39.31-.47.86-1.53.86-3.02,0-1.77-.98-3.53-2.36-4.44-1.41-.94-3.26-.86-6.91-.75v10.68Z"/>
        <path class="cls-3" d="M1037.36,195.75v1.96h-10.68v9.69h10.68v2h-10.72v11.74h10.91v2.08h-13.07v-27.47h12.87Z"/>
        <path class="cls-3" d="M1051.37,194.89l11.15,28.3h-2.51l-3.45-9.14h-11.22l-3.65,9.11h-2.43l11.5-28.26h.63ZM1046.11,212.04h9.69l-4.75-12.21-4.95,12.21Z"/>
        <path class="cls-3" d="M1068.36,195.75v25.35h7.65v2.12h-9.85v-27.47h2.2Z"/>
        <path class="cls-3" d="M1091.09,197.83h-7.46v25.43h-2.24v-25.51h-7.5v-2h17.19v2.08Z"/>
        <path class="cls-3" d="M1102.51,208.9l7.73-13.15h2.47l-9.18,15.46v12.01h-2.12v-12.01l-8.99-15.5h2.55l7.54,13.19Z"/>
      </g>
      <g>
        <g>
          <g class="cls-43">
            <g>
              <path class="cls-40" d="M521.45,66.29c.31,20.46,12.31,30.64,38.62,52.95-26.39-21.39-38.44-31.16-38.63-50.57v-2.38"/>
              <path class="cls-11" d="M521.49,59.26c.12,4.11.43,15.04,9.87,27.96,10.52,14.4,25.34,24.42,37.62,37.03-11.97-11.75-26.45-20.79-36.79-34.29-9.12-11.91-10.53-20.7-10.71-27.72v-2.98"/>
              <path class="cls-2" d="M521.52,51.51c1,37.75,36.63,51.38,54.06,77.69-5.11-7.39-10.61-12.42-28.85-29.07-10.84-9.9-25.25-25.34-25.23-45.04l.02-3.59"/>
              <path class="cls-17" d="M521.56,43.04c.08,21.67,13.36,37.97,24.91,49.75,18.99,19.36,27.9,28.44,31.46,37.64,0,.02.01.04.02.06,0,.02.01.04.02.05l.02.06-.03.1s-.02-.04-.02-.06c-.02-.04-.03-.08-.05-.12,0-.02-.02-.04-.02-.06-1.24-3-3.78-7.51-10.02-14.37-11.97-13.15-26.36-24.03-36.42-38.97-9.62-14.29-9.81-25.57-9.88-29.82l.02-4.26"/>
              <path class="cls-25" d="M521.6,33.73c.57,24.81,13.98,41.1,28.85,56.96,18.71,19.94,25.16,28.52,28.01,37.62.01.03.02.07.03.1,0,.02.01.04.02.05,0,.02.01.03.02.05,0,.01.01.04.01.04l-.06.28s-.01-.04-.02-.06c0-.02-.02-.05-.02-.07-.01-.03-.02-.06-.03-.1-3.46-10.28-11.78-18.91-30.61-38.43-9.14-9.48-26.15-27.11-26.21-51.45l.02-5"/>
              <path class="cls-10" d="M521.65,23.42c.41,20.11,7.99,36.74,26.16,57.4,16.46,18.72,28.35,32.24,31.1,44.71v.86c-3-11.16-9.96-19.86-32.34-43.97-16.86-18.16-25.02-35.5-24.95-53.01l.03-5.99"/>
              <path class="cls-20" d="M521.7,12.29c.44,29.62,14.73,46.98,34.5,71.02,16.5,20.06,20.83,28.88,22.74,37.33v1.28c-2.62-10.7-9.11-20.29-28.94-42.73-15.43-17.46-25.5-32.55-28.04-53.81-.13-1.9-.24-4.44-.28-6.35l.03-6.75"/>
              <path class="cls-4" d="M521.76,0c.09,31.68,17.65,53.98,28.14,67.3,15.52,19.71,26.69,34.68,29.06,47.79v1.78c-2.95-12.93-11.53-24.28-30.4-47.09-10.94-13.23-17.9-23.4-23.33-39.23-2.22-7.77-3.44-13.69-3.51-22.75l.04-7.8"/>
            </g>
          </g>
          <g class="cls-43">
            <g>
              <path class="cls-36" d="M640.01,66.29c-.31,20.46-12.31,30.64-38.62,52.95,26.39-21.39,38.44-31.16,38.63-50.57v-2.38"/>
              <path class="cls-5" d="M639.98,59.26c-.12,4.11-.43,15.04-9.87,27.96-10.52,14.4-25.34,24.42-37.62,37.03,11.97-11.75,26.45-20.79,36.79-34.29,9.12-11.91,10.53-20.7,10.71-27.72v-2.98"/>
              <path class="cls-24" d="M639.94,51.51c-1,37.75-36.63,51.38-54.06,77.69,5.11-7.39,10.62-12.42,28.85-29.07,10.84-9.9,25.25-25.34,25.23-45.04l-.02-3.59"/>
              <path class="cls-8" d="M639.9,43.04c-.08,21.67-13.36,37.97-24.91,49.75-18.8,19.16-27.72,28.25-31.35,37.36-.03.08-.06.15-.09.23-.02.05-.04.1-.06.14,0,.01-.01.03-.02.04,0,.01-.02.04-.02.04l.03.12.02-.04s.01-.03.02-.04c.01-.03.03-.07.04-.1.02-.05.04-.1.06-.15.03-.07.06-.14.09-.21,1.28-3,3.86-7.44,9.9-14.08,11.97-13.15,26.36-24.03,36.42-38.97,9.62-14.29,9.81-25.57,9.88-29.82l-.02-4.26"/>
              <path class="cls-21" d="M639.86,33.73c-.57,24.81-13.98,41.1-28.85,56.96-18.8,20.04-25.22,28.6-28.06,37.76,0,.02-.01.04-.02.07,0,.01-.01.04-.01.04l.06.28s0-.02,0-.03c0,0,0-.02,0-.03.01-.04.02-.08.04-.11,0-.03.02-.05.03-.08,0-.02.02-.04.02-.07,3.48-10.24,11.81-18.88,30.58-38.34,9.14-9.48,26.15-27.11,26.21-51.45l-.02-5"/>
              <path class="cls-18" d="M639.82,23.42c-.41,20.11-7.99,36.74-26.16,57.4-16.46,18.72-28.35,32.24-31.1,44.71v.86c3-11.16,9.96-19.86,32.34-43.97,16.86-18.16,25.02-35.5,24.95-53.01l-.03-5.99"/>
              <path class="cls-34" d="M639.76,12.29c-.44,29.62-14.73,46.98-34.5,71.02-16.5,20.06-20.83,28.88-22.74,37.33v1.28c2.62-10.7,9.11-20.29,28.94-42.73,15.43-17.46,25.5-32.55,28.04-53.81.13-1.9.24-4.44.28-6.35l-.03-6.75"/>
              <path class="cls-19" d="M639.71,0c-.09,31.68-17.65,53.98-28.14,67.3-15.52,19.71-26.69,34.68-29.06,47.79v1.78c2.95-12.93,11.53-24.28,30.4-47.09,10.94-13.23,17.9-23.4,23.33-39.23,2.22-7.77,3.44-13.69,3.51-22.75l-.04-7.8"/>
            </g>
          </g>
        </g>
        <g class="cls-43">
          <g>
            <path class="cls-35" d="M521.45,175.46c.31-20.46,12.31-30.64,38.62-52.95-26.39,21.39-38.44,31.16-38.63,50.57v2.38"/>
            <path class="cls-31" d="M521.49,182.49c.12-4.12.43-15.04,9.87-27.96,10.52-14.39,25.34-24.42,37.62-37.03-11.97,11.75-26.45,20.79-36.79,34.29-9.12,11.91-10.53,20.7-10.71,27.72v2.98"/>
            <path class="cls-39" d="M521.52,190.24c1-37.75,36.63-51.38,54.06-77.69-5.11,7.39-10.61,12.42-28.85,29.06-10.84,9.9-25.25,25.34-25.23,45.04l.02,3.59"/>
            <path class="cls-38" d="M521.56,198.71c.08-21.67,13.36-37.97,24.91-49.75,18.92-19.28,27.84-28.37,31.42-37.53.02-.05.04-.11.06-.16,0-.02.01-.04.02-.05,0-.02.02-.06.02-.06l-.03-.1s-.03.08-.04.1c-.03.06-.05.13-.08.19-1.25,3-3.8,7.5-10,14.32-11.97,13.15-26.36,24.03-36.42,38.97-9.62,14.29-9.81,25.57-9.88,29.82l.02,4.26"/>
            <path class="cls-37" d="M521.6,208.02c.57-24.81,13.98-41.1,28.85-56.96,18.31-19.53,24.88-28.15,27.83-37.05.04-.12.08-.24.12-.37.02-.07.04-.14.07-.21,0-.02.02-.05.02-.07.01-.04.02-.08.04-.12,0-.02.01-.05.01-.05l-.07-.27s-.01.04-.02.05c-.01.04-.03.08-.04.12-.01.03-.02.06-.03.09-.03.08-.06.16-.08.25-.03.09-.06.18-.09.27-3.57,10.04-11.93,18.7-30.42,37.87-9.14,9.48-26.15,27.11-26.21,51.45l.02,5"/>
            <path class="cls-13" d="M521.65,218.33c.41-20.11,7.99-36.74,26.16-57.4,16.46-18.72,28.35-32.24,31.1-44.71v-.86c-3,11.16-9.96,19.86-32.34,43.97-16.86,18.16-25.02,35.5-24.95,53.01l.03,5.99"/>
            <path class="cls-23" d="M521.7,229.46c.44-29.62,14.73-46.98,34.5-71.02,16.5-20.06,20.83-28.88,22.74-37.33v-1.28c-2.62,10.7-9.11,20.29-28.94,42.73-15.43,17.46-25.5,32.55-28.04,53.81-.13,1.9-.24,4.44-.28,6.35l.03,6.75"/>
            <path class="cls-6" d="M521.76,241.75c.09-31.68,17.65-53.98,28.14-67.3,15.52-19.71,26.69-34.68,29.06-47.79v-1.78c-2.95,12.93-11.53,24.28-30.4,47.09-10.94,13.23-17.9,23.4-23.33,39.23-2.22,7.77-3.44,13.7-3.51,22.75l.04,7.8"/>
          </g>
        </g>
        <g class="cls-43">
          <g>
            <path class="cls-14" d="M640.01,175.46c-.31-20.46-12.31-30.64-38.62-52.95,26.39,21.39,38.44,31.16,38.63,50.57v2.38"/>
            <path class="cls-22" d="M639.98,182.49c-.12-4.12-.43-15.04-9.87-27.96-10.52-14.39-25.34-24.42-37.62-37.03,11.97,11.75,26.45,20.79,36.79,34.29,9.12,11.91,10.53,20.7,10.71,27.72v2.98"/>
            <path class="cls-32" d="M639.94,190.24c-1-37.75-36.63-51.38-54.06-77.69,5.11,7.39,10.62,12.42,28.85,29.06,10.84,9.9,25.25,25.34,25.23,45.04l-.02,3.59"/>
            <path class="cls-42" d="M639.9,198.71c-.08-21.67-13.36-37.97-24.91-49.75-18.92-19.28-27.83-28.37-31.42-37.53-.02-.04-.03-.08-.05-.12-.01-.03-.02-.06-.03-.09-.01-.03-.03-.08-.03-.08l.03-.11s.04.09.06.14c.02.04.04.09.05.13.02.05.04.1.06.14,1.26,3,3.83,7.47,9.96,14.21,11.97,13.15,26.36,24.03,36.42,38.97,9.62,14.29,9.81,25.57,9.88,29.82l-.02,4.26"/>
            <path class="cls-1" d="M639.86,208.02c-.57-24.81-13.98-41.1-28.85-56.96-18.63-19.87-25.11-28.45-27.98-37.52-.02-.05-.03-.1-.05-.15-.01-.04-.02-.07-.03-.11,0-.03-.03-.09-.03-.09l.06-.28s.04.11.05.16c.02.05.03.1.05.15.03.09.06.17.09.25,3.53,10.13,11.87,18.78,30.5,38.09,9.14,9.48,26.15,27.11,26.21,51.45l-.02,5"/>
            <path class="cls-28" d="M639.82,218.33c-.41-20.11-7.99-36.74-26.16-57.4-16.46-18.72-28.35-32.24-31.1-44.71v-.86c3,11.16,9.96,19.86,32.34,43.97,16.86,18.16,25.02,35.5,24.95,53.01l-.03,5.99"/>
            <path class="cls-16" d="M639.76,229.46c-.44-29.62-14.73-46.98-34.5-71.02-16.5-20.06-20.83-28.88-22.74-37.33v-1.28c2.62,10.7,9.11,20.29,28.94,42.73,15.43,17.46,25.5,32.55,28.04,53.81.13,1.9.24,4.44.28,6.35l-.03,6.75"/>
            <path class="cls-15" d="M639.71,241.75c-.09-31.68-17.65-53.98-28.14-67.3-15.52-19.71-26.69-34.68-29.06-47.79v-1.78c2.95,12.93,11.53,24.28,30.4,47.09,10.94,13.23,17.9,23.4,23.33,39.23,2.22,7.77,3.44,13.7,3.51,22.75l-.04,7.8"/>
          </g>
        </g>
      </g>
    </g>
  </g>
</svg>